<svg xmlns="http://www.w3.org/2000/svg" viewBox="0 14.199999809265137 213.10000610351562 35" data-asc="0.984" width="213.10000610351562" height="35"><defs/><g fill="#fc1234"><g transform="translate(0, 0)"><path d="M10.20 49.20L10.20 20.20L0 20.20L0 14.20L27.00 14.20L27.00 20.20L16.80 20.20L16.80 49.20L10.20 49.20ZM31.50 49.20L31.50 14.20L38.10 14.20L38.10 49.20L31.50 49.20ZM44.70 49.20L44.70 14.20L56.95 14.20L63.00 44.70L63.90 44.70L69.95 14.20L82.20 14.20L82.20 49.20L75.80 49.20L75.80 19.05L74.90 19.05L68.90 49.20L58.00 49.20L52.00 19.05L51.10 19.05L51.10 49.20L44.70 49.20ZM88.80 49.20L88.80 14.20L111.30 14.20L111.30 20.20L95.40 20.20L95.40 28.55L109.90 28.55L109.90 34.55L95.40 34.55L95.40 43.20L111.60 43.20L111.60 49.20L88.80 49.20ZM116.50 49.20L116.50 14.20L123.10 14.20L123.10 43.20L139.10 43.20L139.10 49.20L116.50 49.20ZM143.60 49.20L143.60 14.20L150.20 14.20L150.20 49.20L143.60 49.20ZM156.80 49.20L156.80 14.20L169.35 14.20L176.30 44.70L177.20 44.70L177.20 14.20L183.70 14.20L183.70 49.20L171.15 49.20L164.20 18.70L163.30 18.70L163.30 49.20L156.80 49.20ZM190.30 49.20L190.30 14.20L212.80 14.20L212.80 20.20L196.90 20.20L196.90 28.55L211.40 28.55L211.40 34.55L196.90 34.55L196.90 43.20L213.10 43.20L213.10 49.20L190.30 49.20Z"/></g></g></svg>