<?xml version="1.0" encoding="utf-8"?>
<!-- Generator: Adobe Illustrator 26.5.0, SVG Export Plug-In . SVG Version: 6.00 Build 0)  -->
<svg version="1.1" id="Layer_1" xmlns="http://www.w3.org/2000/svg" xmlns:xlink="http://www.w3.org/1999/xlink" x="0px" y="0px"
	 viewBox="0 0 287.4 979.7" style="enable-background:new 0 0 287.4 979.7;" xml:space="preserve">
<style type="text/css">
	.st0{fill:#FC1234;}
</style>
<g>
	<path class="st0" d="M96.5,108.8v2.8h48.6l140.3,2.1v48.6L2.1,145.2V88.8l139.5-5.7l63.6-0.3v-2.6l-63.6-0.3L2.1,74.4V16.7L285.5,0
		v48.9l-140.3,2.6h-48v2.6l48,0.4l140.3,5.3v42.6l-140.3,5.7L96.5,108.8z"/>
	<path class="st0" d="M285.5,218.8v45.4H2.1v-45.4h126.6v-8.3H2.1v-45h283.4v45H166.7v8.3H285.5z"/>
	<path class="st0" d="M2.1,325.6l61.8-1.2v-9.7l-61.8-1.2v-46.4l283.4,15.5v74.4L2.1,372.2V325.6z M100.2,315.8v7.8l108.3-2.2
		l33.8-0.6v-2.6l-33.8-0.3L100.2,315.8z"/>
	<path class="st0" d="M285.5,449.9h-38.1v-20.4H2.1v-45.1h245.1v-20.7h38.1L285.5,449.9z"/>
	<path class="st0" d="M96.5,595.5v2.8h48.6l140.3,2.1v48.6L2.1,631.8v-56.4l139.5-5.7l63.6-0.3v-2.6l-63.6-0.3L2.1,561v-57.7
		l283.4-16.7v48.9l-140.3,2.6h-48v2.6l48,0.4l140.3,5.3v42.6l-140.3,5.7L96.5,595.5z"/>
	<path class="st0" d="M40.4,697.1v32.7H2.1v-77.6h283.4v77.1h-38.4v-32.1h-80.7V728h-36.3v-30.9H40.4z"/>
	<path class="st0" d="M285.5,827.2c0,28.3-14.9,45.4-45,45.4H45.8c-28.7,0-43.8-17.3-43.8-45.4v-53.3h283.4V827.2z M242,826.6
		c3.4,0,5.1-1.5,5.1-4.2v-3.5H40.4v3.2c0,3.1,1.8,4.5,5.1,4.5H242z"/>
	<path class="st0" d="M235.7,979.7H51.9C16,979.7,0,963.3,0,929.2c0-33.3,17.3-49.8,51.9-49.7h183.8c34.4,0,51.7,16.7,51.7,50.1
		C287.4,963.1,271.4,979.7,235.7,979.7z M246.2,933.4c3.4,0,5.1-1.3,5.1-3.8c0-2.6-1.8-4-5.1-4H41c-3.4,0-5.1,1.3-5.1,4
		c0,2.5,1.8,3.8,5.1,3.8H246.2z"/>
</g>
</svg>
